<?xml version="1.0" encoding="utf-8"?>
<?xml-stylesheet type="text/xsl" href="rss1.xsl"?>
<rss version="2.0" xmlns:atom="http://www.w3.org/2005/Atom" xmlns:content="http://purl.org/rss/1.0/modules/content/" xmlns:dc="http://purl.org/dc/elements/1.1/" xmlns:media="http://search.yahoo.com/mrss/">
<channel>
 <title>Getty</title>
 <link>http://www.gettyimg.com/</link>
 <atom:link href="http://www.gettyimg.com/" rel="self" type="application/rss+xml" />

 
                <item>
                <title><![CDATA[【PRORES HD】Tony Igy - Astronomia (Never Go Home) [Master Clean ProRes 4K] - 2020]]></title>
                <link><![CDATA[https://sharemania.us/threads/tony-igy-astronomia-never-go-home-master-clean-prores-4k-2020.222068/]]></link>
                <description><![CDATA[<article>
<blockquote class="messageText SelectQuoteContainer ugc baseHtml">
<div style="text-align: center"><img src="https://i.imgur.com/prWxVR7.jpg" class="bbCodeImage LbImage" alt="[​IMG]" data-url="https://i.imgur.com/prWxVR7.jpg" style=""><br>
<br>
<img src="https://i.imgur.com/oLnZNku.jpg" class="bbCodeImage LbImage" alt="[​IMG]" data-url="https://i.imgur.com/oLnZNku.jpg" style="">​</div><br>
<div class="ToggleTriggerAnchor bbCodeSpoilerContainer">
<button type="button" class="button bbCodeSpoilerButton ToggleTrigger Tooltip JsOnly" data-target="> .SpoilerTarget"><span>Spoiler: <span class="SpoilerTitle">MediaInfo</span></span></button>
<div class="SpoilerTarget bbCodeSpoilerText">
<div class="bbCodeBlock bbCodeCode">
<div class="type">Code:</div>
<pre>General
Complete name                  : Tony Igy - Astronomia (Never Go Home) [Master Clean ProRes 4K] - 2020.mov
Format                         : MPEG-4
Format profile                 : QuickTime
Codec ID                       : qt   0000.00 (qt  )
File size                      : 14.9 GiB
Duration                       : 3 min 0 s
Overall bit rate mode          : Variable
Overall bit rate               : 713 Mb/s
Frame rate                     : 24.000 FPS
Movie name                     : Never Going Home master 3
Description                    : Never Going Home master 3
Encoded date                   : 2020-10-02 13:44:32 UTC
Tagged date                    : 2020-10-02 13:45:13 UTC
Writing library                : Apple QuickTime
Copyright                      : © 2020. This media may contain confidential information and is intended only for the use of the individual and/or entity to which it is addressed. If you are not the intended recipient, disclosure, copying, use, or distribution of this media is prohibited.
com.apple.quicktime.creationda : 2 October 2020, 16:40
com.apple.quicktime.title      : Never Going Home master 3
com.apple.quicktime.author     : L1⁝Yuri 2020-10-02

Video
ID                             : 2
Format                         : ProRes
Format version                 : Version 0
Format profile                 : 422 HQ
Codec ID                       : apch
Duration                       : 3 min 0 s
Bit rate mode                  : Variable
Bit rate                       : 710 Mb/s
Width                          : 4 096 pixels
Height                         : 2 160 pixels
Display aspect ratio           : 1.896
Frame rate mode                : Constant
Frame rate                     : 24.000 FPS
Color space                    : YUV
Chroma subsampling             : 4:2:2
Scan type                      : Progressive
Bits/(Pixel*Frame)             : 3.345
Stream size                    : 14.9 GiB (100%)
Title                          : Core Media Video
Writing library                : Apple
Encoded date                   : 2020-10-02 13:44:32 UTC
Tagged date                    : 2020-10-02 13:45:13 UTC
Color primaries                : BT.709
Transfer characteristics       : BT.709
Matrix coefficients            : BT.709

Audio
ID                             : 1
Format                         : PCM
Format settings                : Little / Signed
Codec ID                       : lpcm
Duration                       : 3 min 0 s
Source duration                : 3 min 1 s
Bit rate mode                  : Constant
Bit rate                       : 2 304 kb/s
Channel(s)                     : 2 channels
Channel layout                 : L R
Sampling rate                  : 48.0 kHz
Bit depth                      : 24 bits
Stream size                    : 49.4 MiB (0%)
Source stream size             : 49.7 MiB (0%)
Title                          : Core Media Audio
Encoded date                   : 2020-10-02 13:44:32 UTC
Tagged date                    : 2020-10-02 13:45:13 UTC

Other
ID                             : 3
Type                           : Time code
Format                         : QuickTime TC
Duration                       : 3 min 0 s
Frame rate                     : 24.000 FPS
Time code of first frame       : 01:00:00:00
Time code of last frame        : 01:03:00:00
Time code, stripped            : Yes
Title                          : Core Media Time Code
Encoded date                   : 2020-10-02 13:44:32 UTC
Tagged date                    : 2020-10-02 13:45:13 UTC
</pre>
</div></div>
</div><br>
<div style="text-align: center"><b>DOWNLOAD LINK</b><br>
<img src="https://i.imgur.com/yRbU0vs.png" class="bbCodeImage LbImage" alt="[​IMG]" data-url="https://i.imgur.com/yRbU0vs.png" style=""><br>
<div class="bbCodeBlock bbCodeVfcHH HiddenContent">
<div class="attribution type">Hidden Content:</div>
<blockquote>You must either reply or click 'Like' to see the hidden information contained here.</blockquote>
</div></div>
<div class="messageTextEndMarker">&nbsp;</div>
</blockquote>
</article>]]></description>
                <author><![CDATA[ElFunadisimo]]></author>
                </item>

                </channel></rss>